<svg width="750" height="375" xmlns="http://www.w3.org/2000/svg" xmlns:xlink="http://www.w3.org/1999/xlink"><defs><path id="a" d="M0 0h750v375H0z"/><path id="c" d="M.62 0h565.902v282.95H.62z"/><path id="e" d="M.528 0h381.801v190.901H.528z"/><path id="g" d="M.434 0h197.703v98.851H.434z"/></defs><g fill="none" fill-rule="evenodd"><mask id="b" fill="#fff"><use xlink:href="#a"/></mask><path d="M375 375c206.776 0 375-168.224 375-375h-92.05c0 156.02-126.93 282.95-282.95 282.95C218.98 282.95 92.05 156.02 92.05 0H0c0 206.776 168.224 375 375 375" fill="#FFFAF5" mask="url(#b)"/><g transform="translate(91.429)"><mask id="d" fill="#fff"><use xlink:href="#c"/></mask><path d="M283.572 190.901C178.309 190.901 92.67 105.263 92.67 0H.62c0 156.02 126.93 282.95 282.95 282.95 156.02 0 282.95-126.93 282.95-282.95h-92.049c0 105.263-85.638 190.901-190.9 190.901" fill="#FFECD7" mask="url(#d)"/></g><g transform="translate(183.571)"><mask id="f" fill="#fff"><use xlink:href="#e"/></mask><path d="M191.429 190.901c105.263 0 190.9-85.638 190.9-190.901h-92.05c0 54.594-44.257 98.851-98.85 98.851-54.595 0-98.852-44.257-98.852-98.851H.528c0 105.263 85.638 190.901 190.9 190.901" fill="#FFFAF5" mask="url(#f)"/></g><g transform="translate(275.714)"><mask id="h" fill="#fff"><use xlink:href="#g"/></mask><path d="M99.285 98.851c54.595 0 98.852-44.257 98.852-98.851H.434c0 54.594 44.257 98.851 98.852 98.851" fill="#FFECD7" mask="url(#h)"/></g></g></svg>